<?xml version="1.0" encoding="iso-8859-1"?>
<!-- Uploaded to: SVG Repo, www.svgrepo.com, Generator: SVG Repo Mixer Tools -->
<svg fill="#ffffff" height="800px" width="800px" version="1.1" id="Layer_1" xmlns="http://www.w3.org/2000/svg" xmlns:xlink="http://www.w3.org/1999/xlink" 
	 viewBox="0 0 511.999 511.999" xml:space="preserve">
<g>
	<g>
		<path d="M476.166,169.725c-9.687-35.524-34.838-60.946-72.909-73.865c-4.511-26.425-16.475-47.896-35.655-63.87
			C342.131,10.778,304.354,0.022,255.321,0.022H143.825c-11.167-0.467-33.305,6.234-39.179,34.907L31.641,391.874
			c-0.043,0.208-0.078,0.417-0.108,0.628c-0.22,1.572-1.905,15.638,6.632,25.457c3.382,3.889,9.651,8.525,20.308,8.525h49.602
			c0.357,0.017,0.727,0.024,1.111,0.024c2.435,0,5.391-0.348,8.561-1.207L107.1,477.359c-0.043,0.208-0.079,0.417-0.108,0.628
			c-0.22,1.572-1.905,15.639,6.632,25.457c3.382,3.889,9.651,8.525,20.308,8.525h49.593c0.407,0.02,0.828,0.03,1.261,0.03
			c11.544,0,31.991-7.274,36.556-35.689l16.482-81.478c0.281-1.218,3.833-15.274,17.331-15.274c0.861,0,1.927,0.011,3.181,0.022
			c16.557,0.162,60.545,0.605,105.734-14.622c25.951-8.744,48.038-21.327,65.645-37.4c21.542-19.664,36.531-44.676,44.549-74.336
			C478.851,236.261,485.201,202.857,476.166,169.725z M379.115,162.413c-19.699,72.878-85.909,111.312-191.623,111.309
			c-1.459,0-2.938-0.008-4.412-0.022c-1.335-0.013-2.469-0.023-3.384-0.023c-3.792,0-7.254,0.513-10.41,1.418l30.8-150.588
			c3.589-17.517,15.475-18.609,18.368-18.609c0.042,0,0.083,0.001,0.121,0.001c0.217,0.017,0.208,0.009,0.474,0.009h111.73
			c20.137,0,38.203,1.935,53.825,5.754C385.97,132.868,381.874,152.217,379.115,162.413z M108.925,406.101
			c-0.263-0.023-0.269-0.014-0.577-0.014H58.474c-3.58,0-4.57-1.121-4.896-1.489c-1.735-1.961-2.128-6.501-1.869-9.045
			l72.921-356.534c3.589-17.517,15.475-18.609,18.368-18.609c0.042,0,0.083,0.001,0.121,0.001c0.217,0.017,0.208,0.009,0.474,0.009
			h111.728c71.327,0,113.574,23.397,125.842,69.599c-15.164-2.996-32.04-4.511-50.383-4.511H219.282
			c-11.158-0.47-33.305,6.234-39.179,34.907l-55.935,273.485C120.005,405.589,110.961,406.17,108.925,406.101z M454.572,247.898
			c-19.699,72.878-85.909,111.312-191.623,111.309c-1.459,0-2.938-0.008-4.412-0.022c-1.335-0.013-2.469-0.023-3.384-0.023
			c-24.018,0-34.878,20.505-37.266,31.348c-0.013,0.057-0.024,0.113-0.037,0.171l-16.547,81.797
			c-0.029,0.147-0.056,0.293-0.078,0.441c-2.808,17.886-14.247,18.699-16.838,18.668c-0.264-0.023-0.271-0.014-0.582-0.014h-49.874
			c-3.58,0-4.57-1.121-4.896-1.489c-1.735-1.961-2.128-6.501-1.869-9.045l35.187-171.636c0.476-1.937,4.244-15.329,17.344-15.329
			c0.861,0,1.927,0.011,3.181,0.022c16.558,0.163,60.545,0.605,105.734-14.622c25.951-8.744,48.038-21.327,65.645-37.4
			c21.542-19.664,36.531-44.676,44.549-74.336c2.752-10.174,6.683-28.476,6.453-49.345
			C473.273,147.034,462.784,217.544,454.572,247.898z"/>
	</g>
</g>
<g>
	<g>
		<path d="M111.82,210.263c-5.517-1.126-10.905,2.434-12.032,7.953l-0.97,4.753c-1.126,5.518,2.434,10.905,7.953,12.032
			c0.688,0.141,1.375,0.208,2.051,0.208c4.745,0,8.995-3.331,9.981-8.161l0.97-4.753C120.899,216.777,117.338,211.39,111.82,210.263
			z"/>
	</g>
</g>
<g>
	<g>
		<path d="M104.062,248.28c-5.517-1.126-10.905,2.434-12.032,7.953L66.231,382.638c-1.126,5.518,2.434,10.905,7.953,12.032
			c0.688,0.141,1.375,0.208,2.051,0.208c4.745,0,8.995-3.331,9.981-8.161l25.798-126.405
			C113.14,254.793,109.58,249.406,104.062,248.28z"/>
	</g>
</g>
</svg>